<?xml version="1.0" standalone="no"?>
<!DOCTYPE svg PUBLIC "-//W3C//DTD SVG 20010904//EN"
 "http://www.w3.org/TR/2001/REC-SVG-20010904/DTD/svg10.dtd">
<svg version="1.0" xmlns="http://www.w3.org/2000/svg"
 width="4267.000000pt" height="4267.000000pt" viewBox="0 0 4267.000000 4267.000000"
 preserveAspectRatio="xMidYMid meet">

<g transform="translate(0.000000,4267.000000) scale(0.100000,-0.100000)"
fill="#000000" stroke="none">
<path d="M4465 42663 c-590 -32 -1238 -200 -1780 -462 -1165 -562 -2050 -1573
-2449 -2796 -105 -324 -164 -594 -213 -988 -16 -123 -17 -1317 -21 -16962 -2
-12174 0 -16878 8 -17005 73 -1165 557 -2237 1380 -3060 838 -838 1933 -1320
3132 -1380 149 -8 5209 -10 16963 -7 15557 3 16760 4 16895 20 644 74 1141
218 1670 483 487 245 881 533 1265 925 360 368 639 762 865 1221 254 515 405
1047 467 1648 17 168 18 842 18 17035 0 16190 -1 16867 -18 17035 -38 371
-116 735 -225 1060 -87 256 -142 389 -266 635 -230 455 -481 806 -841 1173
-262 268 -469 440 -765 638 -695 462 -1471 725 -2318 783 -107 8 -5227 10
-16930 9 -9227 -1 -16804 -3 -16837 -5z m19725 -7623 c889 -17 1842 -62 2015
-94 444 -84 816 -423 930 -849 50 -185 54 -350 15 -543 -13 -64 -861 -3217
-916 -3405 -3 -12 34 -41 138 -107 189 -120 452 -304 670 -469 659 -499 1291
-1117 1811 -1770 1011 -1268 1702 -2738 2026 -4303 139 -675 199 -1234 208
-1950 7 -555 -12 -934 -73 -1420 -332 -2659 -1677 -5057 -3784 -6745 -1467
-1175 -3246 -1926 -5115 -2159 -307 -39 -781 -76 -962 -76 l-68 0 -31 -114
-30 -114 100 -6 c579 -36 1874 -34 2726 4 4549 202 8676 1286 11925 3133 827
470 1600 987 2320 1550 77 61 147 115 155 121 36 26 -186 -250 -363 -453
-1011 -1156 -2458 -2363 -4022 -3358 -4715 -2997 -10720 -4413 -17445 -4113
-465 21 -818 40 -900 50 -263 30 -498 146 -691 339 -226 226 -349 519 -349
831 0 167 -32 34 500 2050 230 872 420 1592 422 1602 2 12 -60 58 -227 170
-583 389 -1048 766 -1534 1243 -1694 1665 -2745 3816 -3010 6165 -49 428 -55
569 -55 1155 0 665 18 943 100 1505 272 1866 1077 3654 2298 5100 339 402 790
856 1181 1191 1200 1026 2623 1765 4141 2149 641 162 1263 258 1953 300 90 5
166 11 168 14 6 5 64 229 60 232 -1 1 -191 8 -422 15 -708 20 -1720 6 -2520
-36 -4556 -238 -8667 -1371 -11914 -3283 -707 -415 -1527 -976 -2081 -1422
-99 -80 -120 -95 -120 -86 0 8 186 240 291 362 283 330 742 806 1099 1139
2142 1999 4901 3628 8020 4737 3400 1209 7278 1796 11360 1718z m12885 -24430
c548 -124 931 -462 1108 -975 173 -501 64 -1056 -287 -1467 -194 -227 -488
-396 -817 -470 -139 -31 -445 -33 -579 -5 -551 118 -956 474 -1130 996 -57
170 -74 277 -74 466 0 241 42 424 145 644 198 420 575 712 1046 810 138 29
148 30 333 25 119 -2 190 -9 255 -24z"/>
<path d="M20504 28819 c-1713 -72 -3351 -742 -4634 -1895 -160 -143 -496 -484
-631 -639 -1354 -1555 -1998 -3576 -1793 -5625 146 -1462 731 -2861 1673
-3995 788 -950 1812 -1695 2956 -2152 1725 -690 3668 -705 5400 -43 654 250
1258 585 1823 1010 1408 1061 2395 2594 2777 4315 73 330 128 697 157 1050 17
212 17 908 0 1120 -137 1668 -782 3172 -1888 4405 -155 174 -500 511 -675 660
-1289 1103 -2847 1717 -4544 1790 -254 11 -353 11 -621 -1z"/>
<path d="M36587 10375 c-106 -17 -269 -71 -369 -121 -338 -169 -570 -478 -654
-869 -23 -110 -24 -340 0 -458 75 -385 312 -699 657 -872 354 -177 747 -181
1096 -11 348 169 568 447 670 844 24 93 29 369 8 477 -95 514 -463 890 -975
1001 -104 22 -323 27 -433 9z m458 -330 c261 -55 415 -246 415 -513 0 -107
-15 -176 -56 -259 -51 -106 -177 -204 -302 -236 -27 -6 -50 -15 -53 -19 -2 -3
91 -154 206 -334 116 -180 211 -333 213 -341 3 -10 -26 -13 -145 -13 l-148 0
-206 333 -205 332 -160 0 -159 0 -3 -333 -2 -333 -128 3 -127 3 -3 863 -2 862
397 0 c312 0 413 -4 468 -15z"/>
<path d="M36440 9531 l0 -301 248 0 c278 0 314 6 394 64 33 25 55 53 78 100
31 61 32 71 28 148 -5 98 -27 146 -89 202 -84 77 -101 80 -396 84 l-263 4 0
-301z"/>
</g>
</svg>
